<svg xmlns="http://www.w3.org/2000/svg" viewBox="0 0 118 118"><path d="M99.6 26.5c-1.7 10.6-8.5 20-18.1 25.1-.9 2.1-1.9 4.1-3 5.9-3.5 5.8-7.8 9.8-12.5 11.8-.5 4.9 2.8 9.6 7.7 10.7 1 .2 1.7 1.1 1.7 2.1v10h4.1c3.6 0 6.6 2.9 6.6 6.5v5.2c0 1.2-1 2.2-2.2 2.2H34.3c-1.2 0-2.2-1-2.2-2.2v-5.2c0-3.6 3-6.5 6.6-6.5h4.1v-10c0-1 .7-1.9 1.7-2.1 5-1.1 8.2-5.7 7.7-10.6-4.8-2-9.2-6-12.7-11.9-1.1-1.8-2.1-3.8-3-5.9-9.6-5.1-16.3-14.5-18.1-25.1-.3-1.9.2-3.9 1.5-5.4 1.3-1.5 3.2-2.4 5.2-2.4h6.6v-2.1c0-2.5 2.1-4.6 4.7-4.6h45c2.6 0 4.7 2.1 4.7 4.6v2.1h6.6c2 0 3.9.9 5.2 2.4 1.4 1.5 2 3.5 1.7 5.4zm-60.9 70c-1.2 0-2.2 1-2.2 2.2v3h45.3v-3c0-1.2-1-2.2-2.2-2.2H38.7zm8.4-12.2v7.8h24v-7.8h-24zM65.3 80c-2.3-2.5-3.7-5.9-3.8-9.4-.8.1-1.7.2-2.6.2-.8 0-1.6-.1-2.4-.2 0 2.6-.8 5.2-2.3 7.5-.4.7-.9 1.3-1.5 1.9h12.6zM31.9 27v-4h-6.6c-.7 0-1.4.3-1.9.9-.5.5-.7 1.2-.5 1.9 1.2 7.6 5.4 14.4 11.4 19.1-1.6-5.5-2.4-11.6-2.4-17.9zm49.9-10.4c0-.1-.1-.3-.3-.3h-45c-.1 0-.3.1-.3.3V27c0 10.7 2.5 20.8 7 28.3 4.3 7.2 9.9 11.1 15.8 11.1s11.5-3.9 15.8-11.1c4.5-7.5 7-17.6 7-28.3V16.6zm12.9 7.3c-.5-.6-1.2-.9-1.9-.9h-6.6v4c0 6.3-.8 12.4-2.3 17.9 6-4.7 10.2-11.6 11.4-19.1 0-.7-.2-1.4-.6-1.9zM67 41.2l1.1 6.5c.1.8-.2 1.6-.9 2.1-.4.3-.8.4-1.3.4-.3 0-.7-.1-1-.3l-5.9-3-5.9 3.1c-.7.4-1.6.3-2.3-.2-.7-.5-1-1.3-.9-2.1l1.1-6.5-4.8-4.6c-.6-.6-.8-1.4-.6-2.2.3-.8.9-1.4 1.8-1.5l6.6-1 3-5.9c.4-.7 1.1-1.2 2-1.2.8 0 1.6.5 2 1.2l3 5.9 6.6 1c.8.1 1.5.7 1.8 1.5.3.8 0 1.7-.6 2.2L67 41.2zM62.2 36c-.7-.1-1.3-.5-1.7-1.2l-1.5-3-1.5 3c-.3.6-.9 1.1-1.7 1.2l-3.4.5 2.4 2.4c.5.5.8 1.2.6 1.9l-.4 3.3 3-1.6c.3-.2.7-.2 1-.2.4 0 .7.1 1 .2l3 1.6-.6-3.3c-.1-.7.1-1.4.6-1.9l2.4-2.4-3.2-.5z"/></svg>