<svg width="51" height="51" xmlns="http://www.w3.org/2000/svg" viewBox="0 0 51 51"><path fill="#fff" d="M50.7 25.8c-.3.3-.9.3-1.2 0-4.7-4.8-10.5-7.9-16.9-9.3 2.6 2.1 4.3 5.4 4.3 9 0 6.3-5.1 11.5-11.4 11.5s-11.4-5.2-11.4-11.5c0-3.6 1.7-6.8 4.2-8.9-6.2 1.4-12 4.5-16.6 9.2l-.2.2c-.2.2-.4.3-.6.3-.2 0-.4-.1-.6-.3-.3-.3-.3-.9 0-1.2l.2-.2C7.1 17.8 16 14.1 25.4 14h.2c9.5 0 18.4 3.7 25.1 10.5.4.4.4.9 0 1.3zm-25.2-10h-.1c-5.3.1-9.6 4.4-9.6 9.7 0 5.4 4.3 9.7 9.7 9.7s9.7-4.4 9.7-9.7c0-5.4-4.3-9.7-9.7-9.7zm0 16.8c-3.9 0-7-3.2-7-7.1s3.2-7.1 7-7.1c.5 0 .9.4.9.9s-.4.9-.9.9c-2.9 0-5.3 2.4-5.3 5.3s2.4 5.3 5.3 5.3 5.3-2.4 5.3-5.3c0-.5.4-.9.9-.9s.9.4.9.9c0 3.9-3.2 7.1-7.1 7.1z"/></svg>