<svg xmlns="http://www.w3.org/2000/svg" viewBox="0 0 118 118"><path d="M116.3 42.3l-5.9 1.3c-.1 1.2-.3 2.4-.6 3.6l5.1 3.3s.1 0 .1.1c1 .7 1.2 2 .6 3l-5.9 9.2c-.6 1-2 1.3-3 .6l-5.2-3.4c-.9.7-1.9 1.4-2.9 2l1.3 6c.3 1.1-.3 2.3-1.4 2.6l-10.7 2.3h-.5c-1 0-1.9-.7-2.1-1.7l-1.3-6.1c-1.1-.1-2.3-.3-3.4-.6L77 69.8c-.6 1-2 1.3-3 .6l-9.2-5.9c-1-.6-1.3-2-.6-3l3.4-5.4c-.7-.9-1.4-1.8-2-2.7l-6.2 1.4c-1.2.3-2.3-.5-2.6-1.6l-2.3-10.8c-.3-1.2.5-2.3 1.6-2.6l6.2-1.4c.1-1.1.3-2.2.6-3.3l-5.4-3.4c-1-.6-1.3-2-.6-3l6-9.2c.6-1 2-1.3 3-.6l5.3 3.4c.9-.7 1.8-1.4 2.8-2l-1.5-6.1c-.3-1.2.5-2.3 1.6-2.6l10.7-2.3h.1c1.2-.3 2.3.5 2.6 1.6l1.3 6c1.2.1 2.3.3 3.5.6l3.3-5.2c.6-1 2-1.3 3-.6l9.2 6c1 .6 1.3 2 .6 3l-3.3 5.1c.8.9 1.5 1.9 2.1 3l5.9-1.3c1.2-.3 2.3.5 2.6 1.6l2.3 10.6v.1c.2 1.1-.6 2.2-1.7 2.5zm-4.5-10.2l-5.4 1.2c-1 .2-1.9-.3-2.4-1.1-.8-1.7-1.9-3.3-3.2-4.7-.7-.7-.8-1.8-.3-2.6l3-4.6-5.6-3.6-3 4.7c-.5.8-1.5 1.2-2.5.9-1.8-.6-3.7-.9-5.6-1-1 0-1.9-.7-2.1-1.7l-1.2-5.5-6.4 1.4 1.2 5.6c.2 1-.3 1.9-1.1 2.4-1.7.9-3.2 1.9-4.5 3.2-.7.7-1.8.8-2.6.2l-4.7-3.1-3.6 5.6 4.9 3.1c.8.5 1.2 1.5.9 2.5-.6 1.8-1 3.6-1.2 5.5 0 1-.7 1.8-1.7 2L59 43.6l1.4 6.5 5.7-1.2c1-.2 1.9.3 2.4 1.1.8 1.7 1.9 3.2 3.1 4.5.7.7.8 1.8.2 2.6l-3 4.9 5.6 3.6 3.1-4.9c.4-.6 1.1-1 1.8-1 .2 0 .5 0 .7.1 1.8.6 3.6 1 5.5 1 1 0 1.8.7 2 1.7l1.2 5.6 6.4-1.4-1.1-5.4c-.2-1 .3-2 1.2-2.4 1.7-.8 3.3-1.9 4.7-3.2.7-.7 1.8-.8 2.6-.2l4.7 3 3.6-5.6-4.6-3c-.8-.5-1.2-1.6-.9-2.5.6-1.8 1-3.7 1-5.7 0-1 .7-1.8 1.7-2l5.3-1.3-1.5-6.3zm-25.6 21c-6.6 0-12-5.4-12-12.1 0-6.7 5.4-12.1 12-12 5.7 0 10.6 3.9 11.7 9.5.2.8.3 1.7.3 2.6 0 6.6-5.3 12-12 12zm0-19.8c-.6 0-1.1.1-1.7.2-4.2.9-6.8 5.1-5.9 9.2 1 4.1 5 6.8 9.2 5.9 3.6-.8 6.1-3.9 6.1-7.6 0-4.2-3.4-7.7-7.7-7.7zM57.3 62.1L53 66.4c.5 1.1 1 2.2 1.4 3.4h6c1.2 0 2.1 1 2.1 2.2v11c0 1.2-1 2.2-2.1 2.2h-6c-.4 1.2-.8 2.3-1.4 3.4l4.3 4.3c.8.8.8 2.2 0 3l-7.7 7.7c-.8.8-2.2.8-3 0l-4.3-4.3c-1.1.5-2.2 1-3.3 1.3v6.2c0 1.2-1 2.2-2.1 2.2h-11c-1.2 0-2.1-1-2.1-2.2v-6.3c-1.1-.4-2.1-.8-3.2-1.3l-4.4 4.5c-.8.8-2.2.8-3 0L5.5 96c-.8-.8-.8-2.2 0-3l4.5-4.6c-.5-1-.9-2.1-1.3-3.1H2.1C1 85 0 84.1 0 82.9v-11c0-1.2 1-2.2 2.1-2.2h6.4c.4-1.1.8-2.1 1.3-3.1l-4.5-4.5c-.8-.8-.8-2.2 0-3l7.7-7.7c.8-.8 2.2-.8 3 0l4.5 4.5c1-.5 2.1-1 3.2-1.3v-6.3c0-1.2 1-2.2 2.1-2.2h11c1.2 0 2.1 1 2.1 2.2v6c1.1.4 2.2.8 3.3 1.3l4.3-4.3c.8-.8 2.2-.8 3 0l7.7 7.7c1 .9 1 2.3.1 3.1zm-8.5 2.6l3.9-3.9-4.6-4.8-3.9 4c-.7.7-1.8.8-2.6.3-1.6-1-3.4-1.7-5.3-2.2-1-.2-1.7-1.1-1.6-2.2v-5.6H28V56c0 1-.6 1.9-1.6 2.2-1.8.5-3.5 1.2-5.1 2.2-.8.5-1.9.4-2.6-.3L14.6 56l-4.7 4.7 4.1 4.1c.7.6 1 1.7.5 2.6-.9 1.6-1.7 3.3-2.1 5.1-.3 1-1.1 1.6-2.1 1.6h-6v6.7H10c1 0 1.9.6 2.1 1.6.5 1.8 1.2 3.5 2.1 5.1.5.8.3 1.9-.3 2.6l-4.1 4.1 4.7 4.6 4.1-4.1c.7-.7 1.8-.8 2.6-.3 1.6 1 3.3 1.7 5.1 2.2 1 .3 1.6 1.1 1.6 2.2v5.7h6.6v-5.6c0-1 .7-1.9 1.6-2.2 1.8-.5 3.6-1.2 5.3-2.2.8-.5 1.9-.3 2.6.3l3.9 3.9 4.7-4.7-3.9-3.9c-.7-.7-.8-1.8-.3-2.6 1-1.7 1.7-3.4 2.1-5.3.3-1 1.1-1.6 2.1-1.6h5.5v-6.5h-5.5c-1 0-1.9-.6-2.1-1.6-.5-1.9-1.2-3.6-2.1-5.3-.4-.8-.2-1.8.4-2.5zM31.3 89.6c-6.6 0-12-5.4-12-12.1 0-6.7 5.4-12.1 12-12.1s12 5.4 12 12.1c.1 6.7-5.3 12.1-12 12.1zm0-19.8c-4.3 0-7.7 3.5-7.7 7.7 0 4.3 3.5 7.7 7.7 7.7v-.1c4.2 0 7.7-3.4 7.7-7.7.1-4.2-3.4-7.6-7.7-7.6z"/></svg>