<svg xmlns="http://www.w3.org/2000/svg" viewBox="0 0 118 118"><path d="M98.4 95.9c-.3.9-1.3 1.3-2.2 1l-11.5-4.6-1.7 12.3c-.1.5-.3 1-.8 1.2-.8.4-1.8.2-2.3-.6L65.4 80c-2.1.4-4.3.6-6.5.6s-4.4-.2-6.5-.6l-14.5 25.2c-.5.8-1.5 1.1-2.3.6-.5-.2-.7-.7-.8-1.2L33 92.3l-11.5 4.6c-.9.3-1.8-.1-2.2-1-.2-.6-.1-1.1.2-1.5l14.4-24.9c-5.6-6.1-9-14.2-9-23.2 0-9.5 3.8-18 10-24.2C41.1 15.9 49.6 12 59 12s18 3.9 24.1 10.1c6.2 6.2 10 14.7 10 24.2 0 8.9-3.4 17-9 23.2l14.4 24.9c.3.4.4.9-.1 1.5zm-73.6-4l8.9-3.5c.2-.1.3-.2.5-.2 1-.1 1.8.6 1.9 1.4l1.4 9.6L49.1 79c-4.8-1.4-9.1-3.9-12.8-7.2L24.8 91.9zm64.9-45.7c0-8.5-3.4-16.2-9-21.8-5.5-5.5-13.2-9-21.7-9s-16.2 3.5-21.7 9.2c-5.5 5.5-9 13.3-9 21.8s3.4 16.2 9 21.8c5.5 5.5 13.2 9 21.7 9s16.2-3.5 21.7-9.2c5.6-5.6 9-13.3 9-21.8zm-8 25.6c-3.6 3.2-7.9 5.7-12.8 7.2l11.5 20.2 1.4-9.6c.2-1 1-1.6 1.9-1.4.2 0 .3.1.5.2l8.9 3.5-11.4-20.1zm-3.8-6.6C73.1 70 66.4 73 59 73c-7.4 0-14-3-18.8-7.8-4.8-4.8-7.8-11.5-7.8-18.9s3-14.1 7.8-18.9c4.8-4.8 11.5-7.8 18.8-7.8 7.4 0 14 3 18.8 7.8 4.8 4.8 7.8 11.5 7.8 18.9s-2.9 14-7.7 18.9zm-2.4-35.5c-4.2-4.2-10-6.8-16.4-6.8-6.4 0-12.3 2.7-16.4 6.9-4.2 4.2-6.8 10.1-6.8 16.5s2.6 12.2 6.8 16.5c4.2 4.2 10 6.8 16.4 6.8 6.4 0 12.3-2.6 16.5-6.8 4.2-4.2 6.7-10.1 6.7-16.6 0-6.5-2.6-12.2-6.8-16.5z"/></svg>