<svg xmlns="http://www.w3.org/2000/svg" viewBox="0 0 118 118"><path d="M86.5 84.7c-6.3 9.4-15.2 16.6-25.5 20.9-.6.3-1.3.4-2 .4s-1.3-.1-2-.4c-10.3-4.3-19.2-11.5-25.5-20.9-6.5-9.7-9.9-21-9.9-32.7V26.7c0-2.4 1.6-4.5 3.8-5.1l30.1-9c2.3-.7 4.8-.7 7.1 0l30.1 9c2.2.7 3.8 2.8 3.8 5.1V52c-.1 11.7-3.5 23-10 32.7zm5.7-58c0-.5-.3-.9-.8-1l-30.1-9c-.8-.2-1.6-.4-2.4-.4-.8 0-1.6.1-2.4.4l-30.1 9c-.4.1-.8.6-.8 1V52c0 10.9 3.2 21.3 9.2 30.2 5.9 8.7 14 15.4 23.6 19.4.3.1.5.1.8 0C69 97.7 77.2 91 83 82.3c6-8.9 9.2-19.4 9.2-30.2V26.7zM60.5 92.6c-.5.2-1 .4-1.5.4s-1-.1-1.5-.4c-6.3-3.4-11.8-8.3-16-14.3-5.3-7.7-8.1-16.8-8.1-26.3V34.1c0-1.4.9-2.7 2.3-3.1l22.4-6.7c.6-.2 1.2-.2 1.8 0L82.3 31c1.3.4 2.3 1.7 2.3 3.1V52c0 9.5-2.8 18.6-8.1 26.3-4.2 6-9.7 10.9-16 14.3zm19.9-57.7L59 28.5l-21.4 6.4V52c0 8.6 2.6 16.8 7.4 23.8 3.6 5.3 8.5 9.7 14 12.7 5.5-3 10.3-7.4 14-12.7 4.8-7 7.4-15.2 7.4-23.8V34.9z"/></svg>