<svg xmlns="http://www.w3.org/2000/svg" viewBox="0 0 118 118">
<path d="M99.6,26.5c-1.7,10.6-8.5,20-18.1,25.1c-0.9,2.1-1.9,4.1-3,5.9c-3.5,5.8-7.8,9.8-12.5,11.8c-0.5,4.9,2.8,9.6,7.7,10.7c0,0,0,0,0,0c1,0.2,1.7,1.1,1.7,2.1v10h4.1c3.6,0,6.6,2.9,6.6,6.5v5.2c0,1.2-1,2.2-2.2,2.2H34.3c-1.2,0-2.2-1-2.2-2.2v-5.2c0-3.6,3-6.5,6.6-6.5h4.1v-10c0-1,0.7-1.9,1.7-2.1c0,0,0,0,0,0c5-1.1,8.2-5.7,7.7-10.6c-4.8-2-9.2-6-12.7-11.9c-1.1-1.8-2.1-3.8-3-5.9c-9.6-5.1-16.3-14.5-18.1-25.1c-0.3-1.9,0.2-3.9,1.5-5.4c1.3-1.5,3.2-2.4,5.2-2.4h6.6v-2.1c0-2.5,2.1-4.6,4.7-4.6h45c2.6,0,4.7,2.1,4.7,4.6v2.1h6.6c2,0,3.9,0.9,5.2,2.4C99.3,22.6,99.9,24.6,99.6,26.5z M38.7,96.5c-1.2,0-2.2,1-2.2,2.2v3h45.3v-3c0-1.2-1-2.2-2.2-2.2H38.7z M47.1,84.3v7.8h24v-7.8H47.1z M65.3,80c-2.3-2.5-3.7-5.9-3.8-9.4c-0.8,0.1-1.7,0.2-2.6,0.2c-0.8,0-1.6-0.1-2.4-0.2c0,2.6-0.8,5.2-2.3,7.5c-0.4,0.7-0.9,1.3-1.5,1.9H65.3z M31.9,27v-4h-6.6c-0.7,0-1.4,0.3-1.9,0.9c-0.5,0.5-0.7,1.2-0.5,1.9c1.2,7.6,5.4,14.4,11.4,19.1C32.7,39.4,31.9,33.3,31.9,27z M81.8,16.6c0-0.1-0.1-0.3-0.3-0.3h-45c-0.1,0-0.3,0.1-0.3,0.3V27c0,10.7,2.5,20.8,7,28.3c4.3,7.2,9.9,11.1,15.8,11.1c5.9,0,11.5-3.9,15.8-11.1c4.5-7.5,7-17.6,7-28.3V16.6z M94.7,23.9c-0.5-0.6-1.2-0.9-1.9-0.9h-6.6v4c0,6.3-0.8,12.4-2.3,17.9c6-4.7,10.2-11.6,11.4-19.1C95.3,25.1,95.1,24.4,94.7,23.9z M67,41.2l1.1,6.5c0.1,0.8-0.2,1.6-0.9,2.1c-0.4,0.3-0.8,0.4-1.3,0.4c-0.3,0-0.7-0.1-1-0.3L59,46.9L53.1,50c-0.7,0.4-1.6,0.3-2.3-0.2c-0.7-0.5-1-1.3-0.9-2.1l1.1-6.5l-4.8-4.6c-0.6-0.6-0.8-1.4-0.6-2.2c0.3-0.8,0.9-1.4,1.8-1.5l6.6-1l3-5.9c0.4-0.7,1.1-1.2,2-1.2c0.8,0,1.6,0.5,2,1.2l3,5.9l6.6,1c0.8,0.1,1.5,0.7,1.8,1.5c0.3,0.8,0,1.7-0.6,2.2L67,41.2z M62.2,36c-0.7-0.1-1.3-0.5-1.7-1.2l-1.5-3l-1.5,3c-0.3,0.6-0.9,1.1-1.7,1.2l-3.4,0.5l2.4,2.4c0.5,0.5,0.8,1.2,0.6,1.9L55,44.1l3-1.6c0.3-0.2,0.7-0.2,1-0.2c0.4,0,0.7,0.1,1,0.2l3,1.6l-0.6-3.3c-0.1-0.7,0.1-1.4,0.6-1.9l2.4-2.4L62.2,36z"/>
</svg>
