<svg width="51" height="51" xmlns="http://www.w3.org/2000/svg" viewBox="0 0 51 51"><path fill="#fff" d="M50.7,25.8c-0.3,0.3-0.9,0.3-1.2,0C44.8,21,39,17.9,32.6,16.5c2.6,2.1,4.3,5.4,4.3,9c0,6.3-5.1,11.5-11.4,11.5s-11.4-5.2-11.4-11.5c0-3.6,1.7-6.8,4.2-8.9c-6.2,1.4-12,4.5-16.6,9.2L1.5,26c-0.2,0.2-0.4,0.3-0.6,0.3c-0.2,0-0.4-0.1-0.6-0.3c-0.3-0.3-0.3-0.9,0-1.2l0.2-0.2C7.1,17.8,16,14.1,25.4,14c0,0,0.1,0,0.1,0c0,0,0,0,0,0c0,0,0,0,0.1,0c9.5,0,18.4,3.7,25.1,10.5C51.1,24.9,51.1,25.4,50.7,25.8z M25.5,15.8c0,0-0.1,0-0.1,0c-5.3,0.1-9.6,4.4-9.6,9.7c0,5.4,4.3,9.7,9.7,9.7s9.7-4.4,9.7-9.7C35.2,20.1,30.9,15.8,25.5,15.8z M25.5,32.6c-3.9,0-7-3.2-7-7.1s3.2-7.1,7-7.1c0.5,0,0.9,0.4,0.9,0.9c0,0.5-0.4,0.9-0.9,0.9c-2.9,0-5.3,2.4-5.3,5.3c0,2.9,2.4,5.3,5.3,5.3s5.3-2.4,5.3-5.3c0-0.5,0.4-0.9,0.9-0.9c0.5,0,0.9,0.4,0.9,0.9C32.6,29.4,29.4,32.6,25.5,32.6z"/></svg>
