<svg xmlns="http://www.w3.org/2000/svg" viewBox="0 0 118 118">
<path d="M116.3,42.3l-5.9,1.3c-0.1,1.2-0.3,2.4-0.6,3.6l5.1,3.3c0,0,0.1,0,0.1,0.1c1,0.7,1.2,2,0.6,3l-5.9,9.2c-0.6,1-2,1.3-3,0.6l-5.2-3.4c-0.9,0.7-1.9,1.4-2.9,2l1.3,6c0.3,1.1-0.3,2.3-1.4,2.6l-10.7,2.3h-0.5c-1,0-1.9-0.7-2.1-1.7l-1.3-6.1c-1.1-0.1-2.3-0.3-3.4-0.6L77,69.8c-0.6,1-2,1.3-3,0.6l-9.2-5.9c-1-0.6-1.3-2-0.6-3l3.4-5.4c-0.7-0.9-1.4-1.8-2-2.7l-6.2,1.4c-1.2,0.3-2.3-0.5-2.6-1.6l-2.3-10.8c-0.3-1.2,0.5-2.3,1.6-2.6l6.2-1.4c0.1-1.1,0.3-2.2,0.6-3.3l-5.4-3.4c-1-0.6-1.3-2-0.6-3l6-9.2c0.6-1,2-1.3,3-0.6l5.3,3.4c0.9-0.7,1.8-1.4,2.8-2l-1.5-6.1c-0.3-1.2,0.5-2.3,1.6-2.6l10.7-2.3c0,0,0.1,0,0.1,0c1.2-0.3,2.3,0.5,2.6,1.6l1.3,6c1.2,0.1,2.3,0.3,3.5,0.6l3.3-5.2c0.6-1,2-1.3,3-0.6l9.2,6c1,0.6,1.3,2,0.6,3l-3.3,5.1c0.8,0.9,1.5,1.9,2.1,3l5.9-1.3c1.2-0.3,2.3,0.5,2.6,1.6l2.3,10.6c0,0,0,0.1,0,0.1C118.2,40.9,117.4,42,116.3,42.3z M111.8,32.1l-5.4,1.2c-1,0.2-1.9-0.3-2.4-1.1c-0.8-1.7-1.9-3.3-3.2-4.7c-0.7-0.7-0.8-1.8-0.3-2.6l3-4.6l-5.6-3.6l-3,4.7c-0.5,0.8-1.5,1.2-2.5,0.9c-1.8-0.6-3.7-0.9-5.6-1c-1,0-1.9-0.7-2.1-1.7l-1.2-5.5l-6.4,1.4l1.2,5.6c0.2,1-0.3,1.9-1.1,2.4c-1.7,0.9-3.2,1.9-4.5,3.2c-0.7,0.7-1.8,0.8-2.6,0.2l-4.7-3.1l-3.6,5.6l4.9,3.1c0.8,0.5,1.2,1.5,0.9,2.5c-0.6,1.8-1,3.6-1.2,5.5c0,1-0.7,1.8-1.7,2L59,43.6l1.4,6.5l5.7-1.2c1-0.2,1.9,0.3,2.4,1.1c0.8,1.7,1.9,3.2,3.1,4.5c0.7,0.7,0.8,1.8,0.2,2.6l-3,4.9l5.6,3.6l3.1-4.9c0.4-0.6,1.1-1,1.8-1c0.2,0,0.5,0,0.7,0.1c1.8,0.6,3.6,1,5.5,1c1,0,1.8,0.7,2,1.7l1.2,5.6l6.4-1.4L94,61.3c-0.2-1,0.3-2,1.2-2.4c1.7-0.8,3.3-1.9,4.7-3.2c0.7-0.7,1.8-0.8,2.6-0.2l4.7,3l3.6-5.6l-4.6-3c-0.8-0.5-1.2-1.6-0.9-2.5c0.6-1.8,1-3.7,1-5.7c0-1,0.7-1.8,1.7-2l5.3-1.3L111.8,32.1z M86.2,53.1c-6.6,0-12-5.4-12-12.1c0-6.7,5.4-12.1,12-12c5.7,0,10.6,3.9,11.7,9.5c0.2,0.8,0.3,1.7,0.3,2.6C98.2,47.7,92.9,53.1,86.2,53.1z M86.2,33.3c-0.6,0-1.1,0.1-1.7,0.2c-4.2,0.9-6.8,5.1-5.9,9.2c1,4.1,5,6.8,9.2,5.9h0c3.6-0.8,6.1-3.9,6.1-7.6C93.9,36.8,90.5,33.3,86.2,33.3z M57.3,62.1L53,66.4c0.5,1.1,1,2.2,1.4,3.4h6c1.2,0,2.1,1,2.1,2.2v11c0,1.2-1,2.2-2.1,2.2h-6c-0.4,1.2-0.8,2.3-1.4,3.4l4.3,4.3c0.8,0.8,0.8,2.2,0,3l-7.7,7.7c-0.8,0.8-2.2,0.8-3,0l-4.3-4.3c-1.1,0.5-2.2,1-3.3,1.3v6.2c0,1.2-1,2.2-2.1,2.2H25.9c-1.2,0-2.1-1-2.1-2.2v-6.3c-1.1-0.4-2.1-0.8-3.2-1.3l-4.4,4.5c-0.8,0.8-2.2,0.8-3,0l-7.7-7.7c-0.8-0.8-0.8-2.2,0-3l4.5-4.6c-0.5-1-0.9-2.1-1.3-3.1H2.1C1,85,0,84.1,0,82.9v-11c0-1.2,1-2.2,2.1-2.2h6.4c0.4-1.1,0.8-2.1,1.3-3.1l-4.5-4.5c-0.8-0.8-0.8-2.2,0-3l7.7-7.7c0.8-0.8,2.2-0.8,3,0l4.5,4.5c1-0.5,2.1-1,3.2-1.3v-6.3c0-1.2,1-2.2,2.1-2.2h11c1.2,0,2.1,1,2.1,2.2v6c1.1,0.4,2.2,0.8,3.3,1.3l4.3-4.3c0.8-0.8,2.2-0.8,3,0l7.7,7.7C58.2,59.9,58.2,61.3,57.3,62.1z M48.8,64.7l3.9-3.9L48.1,56l-3.9,4c-0.7,0.7-1.8,0.8-2.6,0.3c-1.6-1-3.4-1.7-5.3-2.2c-1-0.2-1.7-1.1-1.6-2.2v-5.6H28v5.7c0,1-0.6,1.9-1.6,2.2c-1.8,0.5-3.5,1.2-5.1,2.2c-0.8,0.5-1.9,0.4-2.6-0.3L14.6,56l-4.7,4.7l4.1,4.1c0.7,0.6,1,1.7,0.5,2.6c-0.9,1.6-1.7,3.3-2.1,5.1c-0.3,1-1.1,1.6-2.1,1.6H4.3v6.7H10c1,0,1.9,0.6,2.1,1.6c0.5,1.8,1.2,3.5,2.1,5.1c0.5,0.8,0.3,1.9-0.3,2.6l-4.1,4.1l4.7,4.6l4.1-4.1c0.7-0.7,1.8-0.8,2.6-0.3c1.6,1,3.3,1.7,5.1,2.2c1,0.3,1.6,1.1,1.6,2.2v5.7h6.6v-5.6c0-1,0.7-1.9,1.6-2.2c1.8-0.5,3.6-1.2,5.3-2.2c0.8-0.5,1.9-0.3,2.6,0.3l3.9,3.9l4.7-4.7l-3.9-3.9c-0.7-0.7-0.8-1.8-0.3-2.6c1-1.7,1.7-3.4,2.1-5.3c0.3-1,1.1-1.6,2.1-1.6h5.5v-6.5h-5.5c-1,0-1.9-0.6-2.1-1.6c-0.5-1.9-1.2-3.6-2.1-5.3C48,66.4,48.2,65.4,48.8,64.7z M31.3,89.6c-6.6,0-12-5.4-12-12.1c0-6.7,5.4-12.1,12-12.1c6.6,0,12,5.4,12,12.1C43.4,84.2,38,89.6,31.3,89.6z M31.3,69.8c-4.3,0-7.7,3.5-7.7,7.7c0,4.3,3.5,7.7,7.7,7.7v-0.1c4.2,0,7.7-3.4,7.7-7.7C39.1,73.2,35.6,69.8,31.3,69.8z"/>
</svg>
