<svg xmlns="http://www.w3.org/2000/svg" viewBox="0 0 118 118">
<path d="M98.4,95.9c-0.3,0.9-1.3,1.3-2.2,1l-11.5-4.6L83,104.6c-0.1,0.5-0.3,1-0.8,1.2c-0.8,0.4-1.8,0.2-2.3-0.6L65.4,80c-2.1,0.4-4.3,0.6-6.5,0.6c-2.2,0-4.4-0.2-6.5-0.6l-14.5,25.2c-0.5,0.8-1.5,1.1-2.3,0.6c-0.5-0.2-0.7-0.7-0.8-1.2L33,92.3l-11.5,4.6c-0.9,0.3-1.8-0.1-2.2-1c-0.2-0.6-0.1-1.1,0.2-1.5l14.4-24.9c-5.6-6.1-9-14.2-9-23.2c0-9.5,3.8-18,10-24.2C41.1,15.9,49.6,12,59,12s18,3.9,24.1,10.1c6.2,6.2,10,14.7,10,24.2c0,8.9-3.4,17-9,23.2l14.4,24.9C98.8,94.8,98.9,95.3,98.4,95.9z M24.8,91.9l8.9-3.5c0.2-0.1,0.3-0.2,0.5-0.2c1-0.1,1.8,0.6,1.9,1.4l1.4,9.6L49.1,79c-4.8-1.4-9.1-3.9-12.8-7.2L24.8,91.9z M89.7,46.2c0-8.5-3.4-16.2-9-21.8c-5.5-5.5-13.2-9-21.7-9c-8.5,0-16.2,3.5-21.7,9.2c-5.5,5.5-9,13.3-9,21.8s3.4,16.2,9,21.8c5.5,5.5,13.2,9,21.7,9c8.5,0,16.2-3.5,21.7-9.2C86.3,62.4,89.7,54.7,89.7,46.2z M81.7,71.8c-3.6,3.2-7.9,5.7-12.8,7.2l11.5,20.2l1.4-9.6c0.2-1,1-1.6,1.9-1.4c0.2,0,0.3,0.1,0.5,0.2l8.9,3.5L81.7,71.8z M77.9,65.2C73.1,70,66.4,73,59,73c-7.4,0-14-3-18.8-7.8c-4.8-4.8-7.8-11.5-7.8-18.9s3-14.1,7.8-18.9c4.8-4.8,11.5-7.8,18.8-7.8c7.4,0,14,3,18.8,7.8c4.8,4.8,7.8,11.5,7.8,18.9S82.7,60.3,77.9,65.2z M75.5,29.7c-4.2-4.2-10-6.8-16.4-6.8c-6.4,0-12.3,2.7-16.4,6.9c-4.2,4.2-6.8,10.1-6.8,16.5c0,6.4,2.6,12.2,6.8,16.5c4.2,4.2,10,6.8,16.4,6.8c6.4,0,12.3-2.6,16.5-6.8c4.2-4.2,6.7-10.1,6.7-16.6C82.3,39.7,79.7,34,75.5,29.7z"/>
</svg>
