<svg xmlns="http://www.w3.org/2000/svg" viewBox="0 0 20 20">
  <path fill="#0089EE" d="M 10.082444,1.2654184 A 8.9175444,7.7603059 0 0 0 1.1644749,9.0251838 8.9175444,7.7603059 0 0 0 5.7504124,15.806434 l -0.025391,3.464843 2.7246094,-2.623046 a 8.9175444,7.7603059 0 0 0 1.6328122,0.138672 8.9175444,7.7603059 0 0 0 8.917969,-7.7617192 8.9175444,7.7603059 0 0 0 -8.917969,-7.7597654 z m -1.5996097,2.7578125 3.1992187,0 0,2.9257813 -3.1992187,0 0,-2.9257813 z m 0,4.4238279 3.1992187,0 0,5.5820312 -3.1992187,0 0,-5.5820312 z" />
</svg>
