<svg xmlns="http://www.w3.org/2000/svg" viewBox="0 0 118 118">
<path d="M86.5,84.7c-6.3,9.4-15.2,16.6-25.5,20.9c-0.6,0.3-1.3,0.4-2,0.4s-1.3-0.1-2-0.4c-10.3-4.3-19.2-11.5-25.5-20.9C25,75,21.6,63.7,21.6,52V26.7c0-2.4,1.6-4.5,3.8-5.1l30.1-9c2.3-0.7,4.8-0.7,7.1,0l30.1,9c2.2,0.7,3.8,2.8,3.8,5.1V52C96.4,63.7,93,75,86.5,84.7z M92.2,26.7c0-0.5-0.3-0.9-0.8-1l-30.1-9c-0.8-0.2-1.6-0.4-2.4-0.4c-0.8,0-1.6,0.1-2.4,0.4l-30.1,9c-0.4,0.1-0.8,0.6-0.8,1V52c0,10.9,3.2,21.3,9.2,30.2c5.9,8.7,14,15.4,23.6,19.4c0.3,0.1,0.5,0.1,0.8,0C69,97.7,77.2,91,83,82.3c6-8.9,9.2-19.4,9.2-30.2V26.7z M60.5,92.6c-0.5,0.2-1,0.4-1.5,0.4c-0.5,0-1-0.1-1.5-0.4c-6.3-3.4-11.8-8.3-16-14.3c-5.3-7.7-8.1-16.8-8.1-26.3V34.1c0-1.4,0.9-2.7,2.3-3.1l22.4-6.7c0.6-0.2,1.2-0.2,1.8,0L82.3,31c1.3,0.4,2.3,1.7,2.3,3.1V52c0,9.5-2.8,18.6-8.1,26.3C72.3,84.3,66.8,89.2,60.5,92.6z M80.4,34.9L59,28.5l-21.4,6.4V52c0,8.6,2.6,16.8,7.4,23.8c3.6,5.3,8.5,9.7,14,12.7c5.5-3,10.3-7.4,14-12.7c4.8-7,7.4-15.2,7.4-23.8V34.9z"/>
</svg>
